<svg xmlns="http://www.w3.org/2000/svg" viewBox="0 0 960 640"><path d="M686.025 580.018c-8.282 0-15.005 6.713-15.005 15 0 8.279 6.723 15.002 15.005 15.002s14.995-6.723 14.995-15.001c0-8.288-6.713-15.001-14.995-15.001Zm0 26.783c-6.518 0-11.782-5.27-11.782-11.782s5.264-11.774 11.782-11.774c6.51 0 11.78 5.264 11.78 11.774s-5.27 11.782-11.78 11.782Zm6.164-15.259a5.085 5.085 0 0 0-5.09-5.082h-7.228v17.122h3.213v-6.954h2.306l3.246 6.954h3.553l-3.389-7.25a5.095 5.095 0 0 0 3.389-4.79Zm-5.09 1.872h-4.015v-3.747h4.015c1.032 0 1.877.839 1.877 1.875a1.878 1.878 0 0 1-1.877 1.872Z" fill="#010101"/><path d="M800.005 320.007C800.005 143.55 656.455 0 479.998 0S159.995 143.55 159.995 320.007 303.552 640 479.998 640s320.007-143.557 320.007-319.993Z" fill="none"/><path d="M479.998 10.265c-171.061 0-309.728 138.677-309.728 309.742s138.667 309.731 309.728 309.731 309.739-138.687 309.739-309.731S651.053 10.265 479.998 10.265Z" fill="#ffb81c"/><path d="M479.998 21.77c-164.696 0-298.23 133.524-298.23 298.237s133.534 298.227 298.23 298.227S778.23 484.707 778.23 320.007 644.694 21.769 479.999 21.769Z" fill="#010101"/><g fill="#ffb81c"><path d="m619.74 204.049 51.28-51.278a257.46 257.46 0 0 0-23.786-23.796l-51.61 51.624 24.115 23.45ZM496.82 66.668c-5.57-.36-11.16-.61-16.822-.61s-11.255.25-16.828.61v81.62h33.65v-81.62ZM337.55 153.775l-24.784-24.8a256.28 256.28 0 0 0-23.79 23.796l48.573 48.573v-47.57ZM337.55 438.663l-48.574 48.573a257.463 257.463 0 0 0 23.79 23.79l24.783-24.79v-47.573ZM358.948 303.185H226.659c-.357 5.553-.602 11.164-.602 16.822 0 5.654.245 11.242.626 16.818h132.265v-33.64ZM733.33 303.185H622.306l-17.287 16.822 17.3 16.818h111.008c.367-5.576.606-11.164.606-16.818 0-5.658-.239-11.269-.603-16.822ZM595.616 459.415l51.611 51.61a257.906 257.906 0 0 0 23.793-23.79l-51.287-51.277-24.117 23.457ZM463.17 573.336c5.573.353 11.167.612 16.828.612s11.252-.259 16.822-.612V491.7h-33.65v81.635Z"/><path d="M350.579 432.18v46.505h206.564l52.275-50.87v-85.359l-23.073-22.45 23.073-22.462v-85.359l-52.275-50.866H350.58v46.488l21.416 20.843v182.707l-21.416 20.823Z"/></g><g fill="#010101"><path d="m538.745 241.737-14.67-14.262H439.4v59.447h84.675l14.67-14.252v-30.933ZM538.745 367.344l-14.67-14.256H439.4v59.438h84.675l14.67-14.246v-30.936Z"/><path d="M361.329 436.723v31.209h191.436l45.9-44.653v-76.286l-27.748-26.986 27.747-27.013v-76.273l-45.899-44.666H361.33v31.215l21.409 20.84v191.783l-21.41 20.83Zm67.3-220.002h99.828l21.021 20.47v40.025l-21.021 20.46H428.63V216.72Zm0 125.614h99.828l21.021 20.466v40.008l-21.021 20.47H428.63v-80.944Z"/></g><g fill="#fff"><path d="M323.496 519.9c35.533 27.888 78.68 46.454 125.812 52.132v-80.33h-97.634L323.496 519.9ZM562.43 491.701h-51.748v80.331c47.131-5.678 90.289-24.244 125.812-52.132l-50.8-50.823-23.263 22.624ZM358.948 350.694H227.96c5.691 47.138 24.264 90.269 52.146 125.829l78.842-78.87v-46.96ZM358.948 242.353l-78.842-78.859c-27.882 35.54-46.455 78.681-52.147 125.826h130.989v-46.967ZM585.695 170.913l50.809-50.816c-35.533-27.878-78.69-46.448-125.822-52.129v80.32h51.749l23.264 22.625ZM622.45 419.06l57.454 57.463c27.872-35.56 46.435-78.69 52.133-125.83H622.451v68.366ZM449.308 148.289V67.968c-47.132 5.681-90.28 24.251-125.816 52.13l28.185 28.19h97.63ZM622.45 289.32h109.587c-5.695-47.145-24.261-90.286-52.133-125.83l-57.453 57.465v68.365ZM452.416 240.505v33.387h66.372l6.917-6.732v-19.93l-6.917-6.725h-66.372zM452.416 366.122v33.364h66.372l6.917-6.729v-19.91l-6.917-6.725h-66.372z"/></g></svg>