<svg width="960" height="640" viewBox="0 0 960 640" fill="none" xmlns="http://www.w3.org/2000/svg">
<path d="M851.82 21.2061H247.508C297.021 96.219 282.425 108.302 241.027 108.302L187.697 21.2061H111.957L344.658 401.358C334.725 400.026 324.61 399.239 314.253 399.239C225.582 399.239 156.141 447.481 156.141 509.048C156.141 570.615 225.582 618.857 314.253 618.857C402.924 618.857 472.395 570.645 472.395 509.048C472.395 493.966 468.155 479.37 459.797 465.681L393.899 358.053C393.899 358.053 439.749 373.134 471.85 363.14L451.56 336.975C451.56 336.975 527.239 343.274 577.843 333.038L553.767 307.509C553.767 307.509 666.484 306.388 708.518 236.796H689.227C689.227 236.796 742.345 229.377 769.176 171.989H749.522C749.522 171.989 795.25 150.912 807.636 103.003H786.408C786.408 103.003 833.862 71.5074 851.79 21.2061H851.82ZM760.909 110.816H796.28C790.223 145.248 728.232 175.623 728.232 175.623H757.274C740.528 220.473 662.153 240.43 662.153 240.43H693.769C693.769 240.43 658.822 299.908 542.774 299.908C540.261 299.908 537.929 299.877 535.718 299.817L562.55 328.284C491.019 334.522 436.236 327.951 436.236 327.951C442.959 339.549 458.071 358.265 458.071 358.265C424.789 361.778 376.638 344.97 376.638 344.97L453.013 469.739C460.615 482.186 464.461 495.39 464.461 509.017C464.461 565.224 397.049 610.983 314.162 610.983C231.275 610.983 163.894 565.224 163.894 509.017C163.894 452.811 231.306 407.052 314.162 407.052C330.091 407.052 345.506 408.808 360.345 412.049L125.948 29.0496H183.306L236.484 115.934C302.23 119.538 295.75 81.168 261.499 29.0496H839.192C822.718 75.9591 760.909 110.846 760.909 110.846V110.816Z" fill="white"/>
<path d="M839.192 29.0498H261.498C295.719 81.1682 302.23 119.507 236.484 115.934L183.305 29.0498H125.948L360.405 412.049C345.566 408.809 330.152 407.052 314.222 407.052C231.366 407.052 163.954 452.781 163.954 509.018C163.954 565.255 231.366 610.983 314.222 610.983C397.079 610.983 464.521 565.224 464.521 509.018C464.521 495.39 460.675 482.186 453.073 469.74L376.698 344.97C376.698 344.97 424.819 361.808 458.131 358.265C458.131 358.265 443.019 339.58 436.296 327.951C436.296 327.951 491.08 334.522 562.61 328.284L535.778 299.817C537.959 299.878 540.291 299.908 542.835 299.908C658.882 299.908 693.83 240.431 693.83 240.431H662.213C662.213 240.431 740.588 220.474 757.335 175.623H728.293C728.293 175.623 790.283 145.218 796.34 110.816H760.969C760.969 110.816 822.778 75.9291 839.252 29.0195L839.192 29.0498ZM741.739 112.33H306.561L310.74 119.174H784.257C774.596 144.734 707.366 177.168 707.366 177.168H346.232L350.411 183.982H742.768C719.45 223.532 622.905 241.975 622.905 241.975H385.934L390.113 248.789H675.72C675.72 248.789 638.895 291.61 542.865 291.61C523.847 291.61 515.004 289.914 515.004 289.914L544.682 321.379C490.08 325.649 421.942 318.29 421.942 318.29C429.149 334.704 441.111 349.937 441.111 349.937C414.855 349.937 357.952 330.192 357.952 330.192L446.017 474.07C452.619 484.881 456.253 496.662 456.253 509.018C456.253 560.712 392.688 602.655 314.283 602.655C235.878 602.655 172.312 560.742 172.312 509.018C172.312 457.293 235.878 415.35 314.283 415.35C337.359 415.35 359.163 419.014 378.424 425.465L140.787 37.3779H178.642L231.669 123.989C276.307 128.502 321.884 111.755 276.368 37.3779H825.837C805.153 79.3512 741.739 112.33 741.739 112.33Z" fill="#FFB81C"/>
<path d="M825.807 37.377H276.368C321.915 111.754 276.308 128.501 231.669 123.989L178.642 37.377H140.788L378.364 425.494C359.103 419.044 337.299 415.379 314.223 415.379C235.818 415.379 172.252 457.322 172.252 509.047C172.252 560.772 235.818 602.684 314.223 602.684C392.628 602.684 456.193 560.772 456.193 509.047C456.193 496.691 452.559 484.911 445.957 474.1L357.892 330.221C357.892 330.221 414.795 349.966 441.051 349.966C441.051 349.966 429.089 334.733 421.882 318.32C421.882 318.32 490.051 325.679 544.622 321.409L514.944 289.944C514.944 289.944 523.787 291.64 542.805 291.64C638.865 291.64 675.66 248.818 675.66 248.818H390.053L385.874 242.005H622.845C622.845 242.005 719.42 223.562 742.708 184.011H350.412L346.233 177.197H707.367C707.367 177.197 774.597 144.763 784.258 119.204H310.74L306.561 112.36H741.739C741.739 112.36 805.153 79.3806 825.837 37.4072L825.807 37.377Z" fill="#004986"/>
<path d="M867.659 10.0303H226.733C269.19 76.2609 283.303 98.035 247.204 97.0053L193.966 10.0303H92L323.61 388.366C320.491 388.245 317.311 388.033 314.253 388.033C219.313 388.033 144.966 441.181 144.966 509.016C144.966 576.852 219.313 630 314.253 630C409.192 630 483.539 576.852 483.539 509.016C483.539 491.845 478.754 475.31 469.336 459.805L417.43 375.041C417.43 375.041 459.221 383.429 490.565 368.954L475.423 349.481C475.423 349.481 539.11 355.387 597.8 337.883L577.903 316.775C577.903 316.775 667.21 314.504 729.141 235.099H722.963C722.963 235.099 769.085 212.871 788.497 163.66H782.501C782.501 163.66 812.058 141.674 822.112 96.4602H813.39C813.39 96.4602 860.33 63.36 867.659 10V10.0303ZM786.438 102.971H807.667C795.25 150.88 749.552 171.958 749.552 171.958H769.206C742.375 229.345 689.257 236.765 689.257 236.765H708.548C666.483 306.357 553.798 307.478 553.798 307.478L577.873 333.007C527.269 343.243 451.59 336.944 451.59 336.944L471.88 363.109C439.749 373.133 393.929 358.021 393.929 358.021L459.827 465.65C468.185 479.338 472.425 493.935 472.425 509.016C472.425 570.583 402.954 618.825 314.283 618.825C225.612 618.825 156.171 570.614 156.171 509.016C156.171 447.419 225.612 399.207 314.283 399.207C324.64 399.207 334.755 400.025 344.688 401.327L111.957 21.205H187.727L241.057 108.301C282.455 108.301 297.052 96.218 247.538 21.205H851.851C833.923 71.4761 786.468 103.002 786.468 103.002L786.438 102.971Z" fill="#041E42"/>
<path d="M444.655 612.708C444.655 620.127 450.681 626.154 458.101 626.154C465.52 626.154 471.547 620.127 471.547 612.708C471.547 605.288 465.52 599.262 458.101 599.262C450.681 599.262 444.655 605.288 444.655 612.708ZM468.67 612.708C468.67 618.552 463.945 623.277 458.101 623.277C452.256 623.277 447.532 618.552 447.532 612.708C447.532 606.863 452.256 602.139 458.101 602.139C463.945 602.139 468.67 606.863 468.67 612.708Z" fill="#041E42"/>
<path d="M452.559 620.402H455.436V614.133H457.495L460.402 620.402H463.582L460.554 613.891C462.31 613.255 463.582 611.589 463.582 609.59C463.582 607.077 461.523 605.018 459.04 605.018H452.529V620.402H452.559ZM455.466 607.895H459.07C459.978 607.895 460.735 608.652 460.735 609.59C460.735 610.529 459.978 611.256 459.07 611.256H455.466V607.895Z" fill="#041E42"/>
</svg>
