<svg xmlns="http://www.w3.org/2000/svg" viewBox="0 0 960 640"><path fill="#6cace4" d="M915.124 395.91c.643-123.513-128.417-200.406-169.59-213.75 0 0 78.078 113.28 72.315 191.358-2.544 34.427-19.624 45.652-36.83 47.962-.34-67.744-28.538-124.221-48.378-155.613l15.003-16.32S716.436 166.516 589.87 65.862l-20.157 13.06L448.57.445 327.593 78.814 308.77 66.621 44.874 237.561l152.835 82.34-31.25 20.241 167.99 90.52-30.474 19.74s117.258 65 233.43 55.594c10.951 6.821 22.343 13.301 34.044 19.198-58.179 30.465-126.348 13.852-126.348 13.852l-82.773 52.133c212.098 102.637 330.749 17.847 373.115-33.468 96.016-5.112 179.106-50.398 179.681-161.8Z"/><path fill="#010101" d="M898.228 400.426c0-69.912-48.304-144.52-114.523-182.875 58.737 107.1 66.686 178.23 28.222 208.52-12.052 9.49-29.973 14.128-50.04 13.944.46-5.88.727-11.808.727-17.78 0-59.922-22.31-114.53-53.634-158.015l16.355-18.013s-34.127-72.365-136.798-157.122l-18.823 12.192L448.57 22.8l-120.986 78.369-18.823-12.193L81.685 236.082l152.836 82.339-31.25 20.249 167.997 90.52-29.231 18.94 4.753 2.327c34.336 15.545 110.778 44.284 192.608 36.445 18.99 12.852 40.708 24.686 65.168 33.95-37.48 38.798-106.332 44.678-155.996 35.971l-49.272 31.917c46.32 21.474 99.96 31.733 146.597 31.733 63.5 0 121.336-19.024 161.618-58.863 6.371-6.305 12.143-13.019 17.396-20.058 100.17-1.325 173.319-52.04 173.319-141.125Z"/><path fill="#fff" d="M698.055 391.237s17.146-5.213 33.985-1.284a231 231 0 0 0-1.96-11.285c-2.119-8.706-10.867-27.195-49.239-38.379 0 0 13.161-7.531 37.12-2.92a259 259 0 0 0-4.311-10.407c-4.403-8.6-18.13-28.056-52.866-30.15 0 0 14.47-8.456 31.759-8.83-6.38-9.809-13.278-19.074-20.558-27.664l16.037-18.138c-14.452-22.819-45.885-66.093-101.945-115.332l-16.355 10.591-121.144-78.477-107.593 69.695 152.77 21.842 79.861 51.732-68.386-17.288L365.763 237.7l82.806 30.148-101.529 31.65 135.264 72.532s14.71-14.195 39.456-26.02h-.01c15.855-7.581 35.83-14.195 58.721-15.479 0 0-23.843-43.76-78.426-67.628l10.808-12.668s-19.09-7.03-64.284-10.466c0 0 52.775-25.887 107.017-22.21l65.993 42.751h28.263l-30.248 35.436c26.629 32.941 43.75 72.039 50.447 111.295 6.505 5.003 13.077 9.432 19.673 13.143 14.104 7.94 29.257 13.485 44.194 16.663.091-1.318.15-2.644.225-3.962-.134-8.706-3.679-31.391-36.079-41.648ZM643.834 532.72a122 122 0 0 1-3.695 4.287c-26.262 29.231-64.925 44.551-104.715 49.889-11.4 1.525-22.868 2.292-34.093 2.284 15.154 2.094 30.148 3.128 44.551 3.128 57.487 0 107.317-16.605 141.827-50.723.518-.508.993-1.05 1.5-1.568-12.183-1.176-42.724-6.689-45.375-7.297"/><path fill="#6cace4" d="m573.606 202.232-80.595-76.477-95.208-14.786 50.757-52.007-107.584 69.695L493.745 150.5zM505.227 184.944 365.76 237.71l82.806 30.14-47.478-30.757zM569.709 137.431l31.624 20.482-15.261-31.074zM482.3 372.04s14.711-14.195 39.455-26.02l-174.719-46.512zM670.035 407.03c6.505 5.004 13.076 9.433 19.674 13.144 1.667.943 3.36 1.835 5.054 2.711-.968-16.105-3.887-32.968-8.85-50.398-8.464-29.49-22.433-57.303-40.755-81.905l4.678-30.282-30.249 35.452c26.63 32.943 43.751 72.032 50.448 111.279ZM689.266 540.021s-19.733-2.677-45.435-7.305a122 122 0 0 1-3.695 4.287c-26.262 29.231-64.926 44.55-104.715 49.889-11.392 1.525-22.868 2.293-34.093 2.284 0 0 20.491 1.493 36.354.459q3.087-.227 6.113-.517c1.726-.158 3.444-.342 5.162-.55.1-.009.2-.025.3-.033 2.543-.301 5.088-.643 7.606-1.043 38.43-5.813 69.612-20.383 92.589-41.591z"/><path fill="#fff" d="M507.586 395.537c41.048-33.317 80.921-37.037 80.921-37.037s9.59 14.92 26.996 33.418c38.296 40.698 88.21 70.696 144.094 70.696 35.795 0 68.279-13.193 84.241-42.6 22.81-42.016 5.255-102.37-17.08-147.406 19.65 22.592 39.915 56.194 47.128 92.706 5.514 27.921 5.038 60.956-12.642 90.002-24.57 40.333-76.076 58.922-132.386 58.922-76.226-.01-158.265-40.506-221.272-118.7Z"/><path fill="#6cace4" d="M540.327 374.259a184 184 0 0 0-32.741 21.274C553.37 452.353 612 493.401 679.827 508.872c16.288 3.72 34.502 5.637 53.042 5.32 31.6-5.562 45.785-18.964 45.785-18.964-135.856 17.38-213.665-82.415-238.327-120.97ZM551.82 246.427l-.042-.016s10.992 26.838 30.982 38.872l13.644-9.966 11.885-1.277z"/><path fill="#fff" d="m322.58 189.901-55.985 71.83 100.92-62.223-30.19-19.556 27.438-18.54-55.426-35.903-32.066 71.707z"/><path fill="#6cace4" d="m235.552 219.199 51.957-8.866-20.908 51.399 55.985-71.83-45.31 7.313 32.066-71.706-169.439 107.392 109.96-44.635z"/></svg>