<svg xmlns="http://www.w3.org/2000/svg" fill="none" viewBox="0 0 960 640">
  <path fill="#000" d="M599.463 607.85c0-5.535-4.457-10.03-10.002-10.03-5.524 0-10.02 4.495-10.02 10.03 0 5.535 4.496 10.022 10.02 10.022 5.545 0 10.002-4.486 10.002-10.022Zm-17.863 0c0-4.353 3.517-7.88 7.861-7.88 4.344 0 7.863 3.527 7.863 7.88 0 4.335-3.519 7.872-7.863 7.872s-7.861-3.537-7.861-7.872Z"/>
  <path fill="#000" d="m593.592 613.573-2.272-4.841c1.313-.468 2.272-1.747 2.272-3.208a3.421 3.421 0 0 0-3.418-3.415h-4.83v11.464h2.16v-4.645h1.548l2.166 4.645h2.374Zm-3.418-6.803h-2.67v-2.486h2.67c.715 0 1.258.555 1.258 1.24 0 .696-.543 1.246-1.258 1.246Z"/>
  <path fill="#fff" d="M517.312 35.03 479.999 0s-30.894 29.003-37.312 35.03H243.574v437.294C317.906 554.723 380.309 594.081 479.999 640c99.495-45.83 161.97-85.14 236.425-167.676V35.03H517.312Z"/>
  <path fill="#B9975B" d="M514.05 43.263c-.345-.34-34.05-31.972-34.05-31.972s-33.702 31.632-34.048 31.972H251.809V469.16c69.648 77.227 131.74 117.34 228.192 161.775 96.246-44.34 158.326-84.306 228.192-161.775V43.263H514.05ZM325.904 225.935V451.21a493.137 493.137 0 0 1-8.232-8.323v-216.95c0-91.853 52.835-155.167 128.263-182.657.913.638 2.537 4.634 2.936 5.673 1.17 3.052 2.124 6.508 2.87 9.72 0 0-4.12-3.446-8.23-5.418-80.545 33.652-117.607 95.655-117.607 172.681v-.001Zm148.691 187.66-36.41-117.762 12.237-12.237-2.906 14.548 32.485 105.068-5.406 10.383Zm43.206 115.386-14.485 16.645 107.793-310.821 10.457-5.025-103.765 299.201Z"/>
  <path fill="#000" d="M691.725 59.728v403.105c-63.606 70.532-130.255 112.436-211.726 149.974-81.471-37.538-148.12-79.442-211.726-149.974V59.728h142.408c-56.125 32.651-93.011 89.467-93.011 166.209v216.95c38.271 39.664 90 79.579 139.015 102.739l-107.798-310.82 101.533 48.79-12.237 12.238 36.41 117.762h10.813l36.41-117.762-12.238-12.237 101.53-48.791-107.794 310.82c48.681-23.003 100.438-62.759 139.015-102.739v-216.95c0-76.742-36.887-133.558-93.012-166.209h142.408Z"/>
  <path fill="#333F48" d="M508.259 58.67c2.89-12.44 5.805-15.392 5.805-15.392a87328.21 87328.21 0 0 0-34.065-31.989v310.916l22.594-72.713 120.383-57.932c-10.751-62.247-51.307-109.78-114.717-132.89Zm125.837 198.348-89.573 259.227 15.524-20.05s40.82-31.248 65.816-60.024V303.716l8.233-46.698Zm-308.194 0 74.545 215.734-41.44-97.654-24.872-71.382-8.233-46.698Zm123.332-21.208-95.87-36.385 104.041 50.068V97.143l-8.171 138.667Z"/>
</svg>
