<svg xmlns="http://www.w3.org/2000/svg" fill="none" viewBox="0 0 960 640">
  <path fill="#041E42" d="M682.194 585.33c-8.281 0-15.005 6.714-15.005 15.002 0 8.277 6.724 15 15.005 15 8.282 0 14.995-6.723 14.995-15 0-8.288-6.713-15.002-14.995-15.002Zm0 26.784a11.771 11.771 0 0 1-11.782-11.782c0-6.51 5.265-11.775 11.782-11.775 6.51 0 11.78 5.264 11.78 11.775 0 6.512-5.27 11.782-11.78 11.782Zm6.164-15.26a5.077 5.077 0 0 0-1.492-3.595 5.07 5.07 0 0 0-3.598-1.487h-7.228v17.123h3.213v-6.954h2.306l3.246 6.954h3.553l-3.389-7.251a5.09 5.09 0 0 0 3.39-4.79h-.001Zm-5.09 1.872h-4.015v-3.747h4.015c1.033 0 1.877.84 1.877 1.876a1.876 1.876 0 0 1-1.877 1.871Z"/>
  <path fill="#A2AAAD" d="M799.998 320.002C799.998 496.739 656.794 640 480.049 640c-176.733 0-320.045-143.26-320.045-319.998C160.004 143.258 303.274 0 480.006 0c176.746 0 319.992 143.258 319.992 320.002Z"/>
  <path fill="#041E42" d="M480.005 21.477c-164.873 0-298.507 133.666-298.507 298.525 0 164.851 133.678 298.522 298.551 298.522s298.46-133.67 298.46-298.522c0-164.86-133.631-298.525-298.504-298.525ZM615.12 377.453l-13.254-6.604-84.073 5.624v12.42l38.18 54.924v33.314l-52.662-25.965-4.333-10.935-18.977 42.006-18.39-42.014-4.347 10.943-52.654 25.965v-33.306l38.188-54.931v-12.421l-84.074-5.624-13.26 6.604v-76.958l-.162-21.645 18.298 44.02 83.403-39.797 4.497-51.088 28.54-132.744 29.05 132.744 4.496 51.088 83.395 39.798 17.808-44.582.33 22.206.001 76.958Z"/>
  <path fill="#fff" d="M508.888 101.817 480.02 29.065l-30.614 72.756c-107.727 14.533-190.801 106.785-190.801 218.5 0 121.796 99.611 220.547 221.415 220.547 121.806 0 219.666-98.75 219.666-220.546 0-111.717-83.066-203.974-190.798-218.505ZM615.12 377.453l-13.254-6.604-84.073 5.624v12.42l38.18 54.924v33.314l-52.662-25.965-4.333-10.935-18.977 42.006-18.39-42.014-4.347 10.943-52.654 25.965v-33.306l38.188-54.931v-12.421l-84.074-5.624-13.26 6.604v-76.958l-.162-21.645 18.298 44.02 83.403-39.797 4.497-51.088 28.54-132.744 29.05 132.744 4.496 51.088 83.395 39.798 17.808-44.582.33 22.206.001 76.958Z"/>
  <path fill="#782F40" d="m345.287 278.851 18.302 44.02 83.402-39.8 4.5-51.086 6.194-28.61-42.022-27.552 16.913 100.154-44.723-44.622-1.227 35.21-65.442-24.693 24.269 64.262v-5.64l-.166-21.643Zm97.498 97.622-59.33-3.97 23.996 20.936L393.346 411l30.608 4.979 18.831-27.086v-12.42Zm37.242 105.564-18.43-41.814-.35.885 18.784 91.215 19.011-91.892-.078-.2-18.937 41.806Zm37.753-93.143L536.62 416l30.98-4.987-14.114-17.575 24.027-20.962-59.734 3.996.001 12.422Zm-4.205-105.821 83.396 39.798 17.807-44.582.329 22.203v6.67l24.672-65.3-65.466 24.703-1.235-35.21-44.719 44.629c1.146-6.954 16.913-100.162 16.913-100.162l-42.346 27.81 6.155 28.352 4.494 51.09v-.001Zm137.583 25.155-36.05-.17v31.622l36.05-31.452Zm-341.381 0 35.674 31.121v-31.291l-35.674.17Z"/>
  <path fill="#A6192E" d="m442.717 376.473-54.395-3.637 22.99 20.065c-.364 1.017-12.47 15.99-12.47 15.99l26.928 4.382 16.947-24.379v-12.421Zm14.236-170.033-37.238-24.452.074.443 29.622 72.384 2.009-22.829 5.533-25.546Zm-24.4 73.667c-.035-.028-.07-.047-.106-.076l-41.87-41.762-1.223 32.421-62.601-23.547 61.121 64.106 51.394-24.524-6.715-6.618Zm33.915 171.219 13.593 68.66-.066-37.722-13.527-30.938ZM317.635 311.15l27.75 24.214V311.02l-27.75.13Zm223.311-128.939-37.386 24.662 4.193 19.317 33.193-43.979Zm93.707 64.865-62.515 23.652-18.28 31.602 12.502 5.967 68.293-61.221Z"/>
  <path fill="#53565A" d="m614.789 278.289-17.808 44.58-83.395-39.797-4.495-51.088-29.05-132.744-28.542 132.744-4.497 51.088-83.403 39.798-18.298-44.021.162 21.645v76.958l13.26-6.604 84.074 5.624v12.42l-38.188 54.932v33.306l52.654-25.965 4.346-10.943L480 482.236l18.977-42.006 4.333 10.935 52.661 25.965v-33.314l-38.179-54.923v-12.422l84.073-5.623 13.254 6.604v-76.958l-.33-22.206v.001Zm-134.783 189.61-18.2-41.34-6.187-14.344 3.664 18.26-6.553 16.506-42.36 20.894v-22.248l38.18-54.923v-19.608l-91.006-6.09-6.317 3.146V308.12l9.384 22.555 83.771-39.971 5.468 26.782 2.574-30.62.028-.006 4.751-54.077 22.817-110.276-.014 345.393v-.001Z"/>
</svg>
